# xmcd CD database file
#
# Track frame offsets:
#	150
#	49171
#	69716
#	92909
#	108518
#	141057
#	162945
#
# Disc length: 2528 seconds
#
# Revision: 2
# Processed by: cddbd v1.5.2PL0 Copyright (c) Steve Scherf et al.
# Submitted via: CDex 1.70beta2
#
DISCID=6009de07
DTITLE=B.B. KING - Quadromania - Everyday I Have The Blues(Jazz Edition)
DYEAR=2005
DGENRE=Blues
TTITLE0=BB's Theme
TTITLE1=Why I Sing The Blues
TTITLE2=Darling You Know I Love You
TTITLE3=Caledonia
TTITLE4=All Over Again
TTITLE5=Everyday I Have The Blues
TTITLE6=Sweet Little Angel
EXTD=YEAR: 2005
EXTT0=
EXTT1=
EXTT2=
EXTT3=
EXTT4=
EXTT5=
EXTT6=
PLAYORDER=
